<svg width="24" height="24" viewBox="0 0 24 24" fill="none" xmlns="http://www.w3.org/2000/svg">
<path d="M17.5781 2.24915C19.6011 2.24915 21.248 3.8951 21.248 5.91907V18.0792C21.248 20.1032 19.6011 21.7491 17.5781 21.7491H9.41895C7.39497 21.7491 5.74809 20.1032 5.74805 18.0792C5.74805 17.6654 6.08425 17.3295 6.49805 17.3292C6.91205 17.3292 7.24805 17.6652 7.24805 18.0792C7.24809 19.2752 8.22297 20.2491 9.41895 20.2491H17.5781C18.7741 20.2491 19.748 19.2752 19.748 18.0792V5.91907C19.748 4.7231 18.7741 3.74915 17.5781 3.74915H9.41895C8.22297 3.74915 7.24809 4.7231 7.24805 5.91907C7.24805 6.33307 6.91205 6.66907 6.49805 6.66907C6.08425 6.66882 5.74805 6.33292 5.74805 5.91907C5.74809 3.8951 7.39497 2.24915 9.41895 2.24915H17.5781ZM5.95898 8.46692C6.2519 8.17401 6.72651 8.17417 7.01953 8.46692C7.31253 8.75992 7.31253 9.23447 7.01953 9.52747L5.29883 11.2491H12.498C12.912 11.2491 13.248 11.5851 13.248 11.9991C13.248 12.4131 12.912 12.7491 12.498 12.7491H5.34668L7.04492 14.4318C7.33992 14.7238 7.34178 15.1983 7.05078 15.4923C6.90481 15.6411 6.71045 15.715 6.51758 15.715C6.32781 15.7149 6.13608 15.6429 5.99121 15.4982L2.97754 12.5148C2.83474 12.3738 2.75488 12.1824 2.75488 11.9835C2.75499 11.7838 2.83294 11.5922 2.97461 11.4513L5.95898 8.46692Z" fill="#262626"/>
</svg>
