<svg width="24" height="24" viewBox="0 0 24 24" fill="none" xmlns="http://www.w3.org/2000/svg">
<path d="M18.6875 3.79895C19.6985 3.79901 20.4883 4.09327 21.04 4.67297C21.5723 5.2332 21.8438 6.02356 21.8438 7.02356V12.2472C21.8438 13.2443 21.5752 14.0398 21.0459 14.6056C20.4914 15.1965 19.6986 15.4961 18.6904 15.4962L14.623 15.4991V16.2755H21.2393C21.5725 16.2756 21.8408 16.553 21.8408 16.8947C21.8407 17.2362 21.5724 17.5137 21.2393 17.5138H14.623V18.2833C14.623 18.6251 14.3538 18.9025 14.0205 18.9025C11.0263 18.9025 8.77034 20.0763 8.6709 20.1281L8.66797 20.13C8.59523 20.1692 8.51375 20.183 8.43262 20.1886C8.42697 20.1897 8.42087 20.1919 8.41504 20.1945C8.40648 20.1982 8.39763 20.2022 8.3877 20.2023C8.29258 20.2023 8.1971 20.1804 8.11035 20.1329L8.10742 20.131C8.01455 20.0829 5.7395 18.9054 2.75684 18.9054C2.42369 18.9052 2.15527 18.6279 2.15527 18.2863V9.95618C2.15527 9.63405 2.39904 9.36225 2.70996 9.33704C2.7795 9.33126 3.60213 9.26968 4.74023 9.3927V7.03137C4.74028 6.03166 5.01195 5.24179 5.54395 4.67883C6.09577 4.099 6.88626 3.80481 7.89746 3.80481L18.6875 3.79895ZM3.3623 17.6759C5.28666 17.7655 6.86665 18.267 7.79102 18.6339V11.4855C6.12436 10.6732 4.26708 10.5586 3.3623 10.5558V17.6759ZM13.4209 10.5558C12.5161 10.5586 10.6531 10.676 8.99219 11.4855V18.6339C9.91652 18.267 11.4966 17.7656 13.4209 17.6759V10.5558ZM7.89746 5.04309C7.22529 5.04309 6.72376 5.21363 6.40723 5.54407C6.10196 5.86613 5.94537 6.36477 5.94531 7.02844V9.5802C6.72954 9.74267 7.57547 10.0033 8.3877 10.4122C10.954 9.12368 13.8519 9.31998 14.0605 9.33411H14.0684C14.382 9.35941 14.623 9.63118 14.623 9.95325V14.2589L18.6875 14.256C19.3568 14.2559 19.8583 14.0851 20.1748 13.7462C20.4829 13.4185 20.6367 12.9139 20.6367 12.2472V7.02356C20.6367 6.35969 20.4831 5.86034 20.1777 5.53821C19.864 5.20496 19.3596 5.03728 18.6875 5.03723L7.89746 5.04309Z" fill="#262626"/>
</svg>
