<svg width="24" height="24" viewBox="0 0 24 24" fill="none" xmlns="http://www.w3.org/2000/svg">
<path d="M12.002 2.172C12.8255 2.172 13.5654 2.64557 13.9268 3.41028L15.7891 7.34583C15.7891 7.34841 15.7893 7.34896 15.792 7.35168C15.8005 7.36831 15.8175 7.38211 15.8369 7.38489L20.002 8.01477C20.7973 8.1352 21.4552 8.69845 21.7158 9.48254C21.9847 10.2949 21.7862 11.1723 21.1924 11.7745L18.1787 14.8361C18.1563 14.8585 18.1477 14.8894 18.1533 14.923L18.8643 19.2501C19.0043 20.1071 18.6603 20.9475 17.9658 21.4406C17.6017 21.6982 17.1786 21.8272 16.7529 21.8273C16.4084 21.8273 16.0636 21.7402 15.7471 21.5665L12.0186 19.5245C12.0075 19.5191 11.9935 19.5191 11.9824 19.5245L8.25391 21.5665C7.54803 21.9531 6.69634 21.9054 6.03809 21.4376C5.34089 20.9446 4.99682 20.1042 5.13965 19.2472L5.85059 14.923C5.85619 14.8894 5.8448 14.8585 5.8252 14.8361L2.81152 11.7745C2.21769 11.1723 2.01931 10.2949 2.29102 9.48254C2.55162 8.69846 3.20951 8.13813 4.00488 8.0177L8.16992 7.38782C8.18953 7.38502 8.20644 7.37044 8.21484 7.35364V7.35168C8.21484 7.35168 8.21624 7.35031 8.21777 7.34875L10.0801 3.41321C10.4386 2.64572 11.1784 2.17202 12.002 2.172ZM12.002 3.26184C11.5958 3.26186 11.2455 3.49152 11.0635 3.87805L9.20117 7.81067C9.03871 8.15801 8.71897 8.39846 8.34082 8.46008H8.33496L4.16699 9.09094C3.77227 9.14986 3.45588 9.42403 3.32422 9.82434C3.21498 10.1549 3.2257 10.6401 3.58984 11.0099L6.60449 14.0743L6.60742 14.0763C6.87066 14.3451 6.98828 14.7292 6.92676 15.1017L6.21484 19.4269C6.12804 19.9563 6.39165 20.3568 6.66895 20.5529C6.82314 20.6621 7.23498 20.886 7.7334 20.6144L11.4609 18.5724C11.629 18.48 11.8143 18.4327 12.002 18.4327C12.1896 18.4327 12.375 18.4799 12.5459 18.5724L16.2705 20.6144C16.766 20.8859 17.1807 20.6622 17.335 20.5529C17.6123 20.3568 17.8759 19.9591 17.7891 19.4269L17.0771 15.1017C17.0156 14.7321 17.1333 14.3481 17.3965 14.0792L17.3994 14.0763L20.417 11.0118C20.7807 10.6421 20.7918 10.1577 20.6826 9.82727C20.5482 9.4269 20.2346 9.1528 19.8398 9.09387L15.6719 8.46008H15.666C15.2879 8.39846 14.9653 8.15801 14.8057 7.81067L12.9434 3.87805C12.7613 3.4915 12.4081 3.26184 12.002 3.26184Z" fill="#262626"/>
</svg>
