<svg width="7" height="13" viewBox="0 0 7 13" fill="none" xmlns="http://www.w3.org/2000/svg">
<path d="M6.29924 12.5005C6.47005 12.5005 6.63289 12.4218 6.74783 12.2867C6.97612 12.0131 6.96015 11.5959 6.71271 11.3428L1.81827 6.44708L6.74944 1.53383C6.99848 1.28246 6.90918 0.857807 6.74942 0.70147C6.54554 0.490904 6.15236 0.40735 5.90332 0.64162C5.89853 0.64675 5.89374 0.65017 5.88895 0.6553L0.563303 5.94776C0.43559 6.0743 0.363751 6.25214 0.363751 6.43853C0.362154 6.62492 0.432398 6.80447 0.558514 6.93272L5.88576 12.3226C5.99691 12.437 6.14512 12.5008 6.29924 12.5005Z" fill="#262626"/>
</svg>
