<svg width="20" height="18" viewBox="0 0 20 18" fill="none" xmlns="http://www.w3.org/2000/svg">
<path d="M8.75977 0.802856C9.56649 0.802856 10.2246 1.45805 10.2246 2.26477V2.99622H18.3789C19.1856 2.99622 19.8408 3.65141 19.8408 4.45813V15.7433C19.8408 16.55 19.1856 17.2062 18.3789 17.2062H1.62012C0.813394 17.2062 0.155273 16.5499 0.155273 15.7404V2.26477C0.155273 1.45805 0.810593 0.802856 1.62012 0.802856H8.75977ZM1.62012 2.07727C1.51367 2.07727 1.43262 2.15833 1.43262 2.26477V15.7433C1.43262 15.8497 1.51367 15.9318 1.62012 15.9318H18.3789C18.4825 15.9318 18.5664 15.8469 18.5664 15.7433V4.46106C18.5664 4.35462 18.4853 4.27258 18.3789 4.27258H9.58594C9.2332 4.27235 8.94727 3.98671 8.94727 3.63391V2.26477C8.94727 2.15833 8.86621 2.07727 8.75977 2.07727H1.62012Z" fill="#262626"/>
</svg>
