<svg width="24" height="24" viewBox="0 0 24 24" fill="none" xmlns="http://www.w3.org/2000/svg">
<path d="M12.4473 1.01099C14.2096 1.05168 22.9999 1.78114 23 12.0266C23 22.281 14.2424 22.9611 12.4824 22.9924C12.2884 22.9956 12.0594 22.9983 11.834 22.9983C11.7276 22.9983 11.6208 22.9985 11.5176 22.9954C9.76057 22.9734 1 22.3215 1 11.967C1.00014 1.6121 9.7025 1.01687 11.4492 1.00122C11.7746 0.994967 12.1406 1.0016 12.4473 1.01099ZM11.459 2.34595C9.32054 2.36794 2.34675 3.11289 2.34668 11.968C2.34668 20.8332 9.38128 21.6223 11.5381 21.6536C11.8478 21.6598 12.1856 21.653 12.4609 21.6467C14.6177 21.606 21.6553 20.7988 21.6553 12.0276C21.6553 3.25952 14.5832 2.40795 12.417 2.35474C12.1228 2.34848 11.7751 2.34282 11.459 2.34595ZM11.5088 17.0852C12.1001 17.0854 12.4853 17.4735 12.4854 18.0305C12.4854 18.6534 12.1064 19.0266 11.543 19.0266C10.942 19.0266 10.5664 18.6537 10.5664 18.1028V18.0305C10.5696 17.4734 10.9548 17.0852 11.5088 17.0852ZM11.9658 5.15552C13.0175 5.15243 13.8566 5.38388 14.4639 5.84399C15.2432 6.41997 15.6094 7.21228 15.6094 8.33911C15.6093 9.7163 15.0396 10.5365 13.7344 12.0764C12.2382 13.8074 12.1787 13.8765 12.1787 15.4915C12.1787 15.7388 11.9778 15.9397 11.7305 15.9397H11.2363C11.0235 15.9397 10.8388 15.7892 10.7949 15.5764C10.7511 15.3448 10.7293 15.1063 10.7324 14.8684C10.7325 13.6572 11.1577 12.94 12.1123 11.7913L12.2939 11.5725C13.8654 9.71309 14.1631 9.19315 14.1631 8.31665C14.163 7.69406 13.9846 7.28723 13.5654 6.95239C13.3244 6.76144 12.9012 6.53931 11.7461 6.53931C11.117 6.53933 10.563 6.61131 9.88379 6.78345C9.64291 6.84282 9.40161 6.69883 9.33887 6.46118C9.3373 6.45649 9.33672 6.45123 9.33594 6.44653C9.33518 6.44198 9.33449 6.43741 9.33301 6.43286L9.26074 6.05103C9.22321 5.85086 9.32343 5.65051 9.50781 5.56274C9.93041 5.3624 10.9672 5.15552 11.9658 5.15552Z" fill="#262626"/>
</svg>
