<svg width="24" height="24" viewBox="0 0 24 24" fill="none" xmlns="http://www.w3.org/2000/svg">
<path d="M10.712 2.64465C11.373 1.99199 12.6233 1.99199 13.2872 2.64465L21.3682 10.5939C21.836 11.0532 21.9698 11.7007 21.7149 12.2833C21.4487 12.8994 20.8047 13.297 20.0821 13.297H19.5782V20.2296C19.5782 21.1176 18.7876 21.8409 17.8184 21.8409H14.9424C14.6035 21.8465 14.323 21.5772 14.3174 21.2355V17.4767H9.73246V21.2355C9.72686 21.5744 9.44637 21.8465 9.10746 21.8409H6.06254C5.09337 21.8409 4.30375 21.1177 4.30375 20.2325V13.2999H3.91703C3.19449 13.2999 2.55043 12.9023 2.28422 12.2862C2.02934 11.7037 2.1604 11.0534 2.6309 10.5968L10.712 2.64465ZM12.3907 3.49035C12.1947 3.29715 11.7997 3.2973 11.6036 3.49035L3.52153 11.4396C3.37587 11.5824 3.39553 11.7232 3.43754 11.8185C3.49361 11.9501 3.651 12.09 3.91703 12.09H4.93364C5.27242 12.0844 5.55278 12.3529 5.55864 12.6945V20.2325C5.55864 20.4538 5.78525 20.6329 6.06254 20.6329H8.47953V16.8712C8.48524 16.5324 8.76579 16.2611 9.10746 16.2667H14.9454C15.284 16.2613 15.5637 16.5297 15.5694 16.8712V20.631H17.8184C18.0985 20.631 18.3262 20.4509 18.3262 20.2296V12.6925C18.3318 12.3536 18.6115 12.0815 18.9532 12.087H20.0821C20.3482 12.087 20.5055 11.9471 20.5616 11.8126C20.6007 11.7174 20.6199 11.5802 20.4747 11.4347L12.3907 3.49035Z" fill="#262626"/>
</svg>
