<svg width="233" height="295" viewBox="0 0 233 295" fill="none" xmlns="http://www.w3.org/2000/svg">
<path d="M196.413 7.65756C221.036 19.8656 231.338 50.918 218.558 76.6948C214.084 85.718 204.035 98.2185 189.74 103.366C184.672 105.191 180.744 105.848 177.624 106.262L177.621 106.262C174.67 106.656 171.617 107.017 169.275 108.204C168.034 108.833 166.935 109.713 166.101 110.971C165.327 112.139 164.847 113.533 164.619 115.158L164.577 115.486C164.355 117.381 164.693 119.05 165.561 120.467C166.409 121.851 167.664 122.829 169.002 123.554C171.592 124.956 175.061 125.679 177.952 126.353L177.962 126.355L177.973 126.358C178.95 126.575 188.989 128.777 198.824 130.946C203.745 132.031 208.617 133.108 212.285 133.926C214.12 134.335 215.651 134.679 216.736 134.926C217.279 135.05 217.706 135.148 218.002 135.218C218.142 135.251 218.246 135.276 218.317 135.294L218.442 135.329C227.344 137.757 232.635 147.03 230.397 156.41L230.387 156.45L230.379 156.491C230.367 156.535 229.607 159.72 228.814 163.045C228.051 166.241 227.28 169.475 227.217 169.74L227.217 169.741C224.987 179.149 215.971 185.357 206.815 183.844L206.686 183.822C206.606 183.807 206.489 183.784 206.335 183.753C206.011 183.687 205.544 183.59 204.953 183.465C203.77 183.216 202.105 182.86 200.116 182.433C196.138 181.578 190.877 180.438 185.627 179.299C180.377 178.159 175.14 177.019 171.21 176.163C169.245 175.735 167.607 175.379 166.458 175.128C165.315 174.879 164.675 174.739 164.659 174.736L164.636 174.731L164.613 174.726C160.434 173.875 156.539 173.812 153.134 175.074C149.661 176.361 146.944 178.933 145 182.854C143.139 186.608 143.281 191.448 144.064 195.523L144.066 195.532L144.068 195.54L146.029 195.146C144.088 195.536 144.068 195.541 144.068 195.541C144.068 195.542 144.068 195.543 144.068 195.544C144.069 195.546 144.069 195.549 144.07 195.553C144.072 195.562 144.075 195.575 144.078 195.592C144.085 195.627 144.096 195.679 144.109 195.747C144.137 195.884 144.177 196.086 144.23 196.35C144.336 196.878 144.493 197.653 144.691 198.639C145.088 200.61 145.655 203.428 146.335 206.81C147.695 213.575 149.509 222.6 151.323 231.64C153.137 240.681 154.951 249.736 156.312 256.563C156.993 259.977 157.559 262.832 157.956 264.849C158.155 265.858 158.31 266.654 158.416 267.205C158.469 267.481 158.508 267.691 158.535 267.834C158.543 267.877 158.549 267.912 158.553 267.939L158.567 268.031C160.034 277.543 153.877 286.742 144.772 288.983L144.671 289.008L144.66 289.011C144.647 289.015 144.632 289.018 144.616 289.022C144.521 289.046 144.382 289.081 144.205 289.125C143.85 289.212 143.345 289.336 142.739 289.486C141.527 289.784 139.914 290.182 138.297 290.58C135.018 291.387 131.901 292.151 131.868 292.16L131.811 292.171L131.754 292.184C122.715 294.423 113.679 289.071 111.322 279.852L111.289 279.725C111.269 279.639 111.241 279.512 111.203 279.34C111.127 278.995 111.02 278.497 110.886 277.865C110.617 276.6 110.242 274.811 109.794 272.658C108.896 268.353 107.706 262.604 106.492 256.72L101.045 230.288C100.589 228.081 100.11 224.956 99.1577 222.206C98.1988 219.437 96.6067 216.546 93.584 215.047C90.5609 213.548 87.3002 214.033 84.5179 214.947C81.7579 215.854 78.9796 217.365 76.9446 218.337L76.9389 218.34C74.7707 219.383 63.4472 224.818 52.6089 230.008C47.1895 232.603 41.8917 235.136 37.922 237.028C35.9374 237.974 34.2864 238.758 33.1182 239.31C32.5335 239.586 32.0726 239.803 31.753 239.951C31.5997 240.022 31.4839 240.076 31.4041 240.112L31.3989 240.113L31.2772 240.165C22.5087 243.864 12.7751 239.915 9.08019 231.363L9.07932 231.363C8.88505 230.908 7.62456 228.001 6.4049 225.189C5.74248 223.661 5.08094 222.136 4.58441 220.99C4.33614 220.417 4.12963 219.939 3.98446 219.603C3.91183 219.436 3.85467 219.304 3.81588 219.214C3.8079 219.195 3.80102 219.178 3.79475 219.164L3.75381 219.068L3.58474 218.664C0.147226 210.143 3.75689 199.925 12.0785 195.403L12.1596 195.358C12.1837 195.346 12.2156 195.33 12.2555 195.31C12.3846 195.244 12.5753 195.148 12.8271 195.023C13.3296 194.774 14.0579 194.416 14.981 193.963C16.8264 193.058 19.4421 191.78 22.5712 190.256C28.8287 187.206 37.1343 183.167 45.4282 179.138C53.722 175.109 62.0038 171.09 68.2116 168.077C71.3154 166.571 73.9012 165.317 75.7107 164.439C76.6154 164 77.326 163.655 77.8106 163.42C78.0529 163.302 78.2392 163.212 78.3643 163.151C78.4268 163.121 78.4739 163.097 78.5056 163.082C78.5214 163.074 78.5334 163.069 78.5414 163.065C78.5454 163.063 78.5489 163.062 78.551 163.061L78.5527 163.06L78.554 163.059L78.5714 163.05C82.2808 161.206 86.2244 158.391 88.0862 154.636C90.0297 150.716 90.4347 146.997 89.3573 143.454C88.3009 139.98 85.892 136.918 82.6827 134.105L82.6476 134.075L81.246 132.881C80.3513 132.118 79.0757 131.03 77.5459 129.725C74.4862 127.116 70.4092 123.638 66.3249 120.15C62.2402 116.661 58.1488 113.164 55.0609 110.516C53.5167 109.191 52.2251 108.081 51.3111 107.291C50.8537 106.895 50.4939 106.583 50.2454 106.365C50.1264 106.26 50.0376 106.181 49.9773 106.127L49.8823 106.037C43.1364 99.6669 42.6224 88.7347 48.7532 81.2579L48.7762 81.229L48.7984 81.1996C48.7891 81.2121 49.2943 80.5942 50.1371 79.5656C50.9526 78.5705 52.0336 77.2522 53.113 75.9355C54.1925 74.6188 55.271 73.3035 56.0807 72.3155C56.4855 71.8215 56.8235 71.4087 57.061 71.1186C57.1795 70.9738 57.2733 70.859 57.3381 70.7796C57.3704 70.74 57.3968 70.7083 57.4151 70.6859C57.4239 70.6751 57.4326 70.6651 57.4394 70.6565C57.4409 70.6548 57.4422 70.6516 57.4442 70.6491C63.5569 63.1954 74.1331 61.7902 81.4528 67.4101L81.5492 67.484C81.6062 67.5296 81.6921 67.5988 81.808 67.6941C82.0426 67.8871 82.3794 68.1675 82.8065 68.5249C83.6598 69.2389 84.8608 70.2495 86.2968 71.462C89.1679 73.8863 92.9732 77.1118 96.815 80.3708C104.495 86.8854 112.324 93.5419 113.088 94.1888L113.097 94.1953L113.106 94.2027C115.397 96.0982 118.073 98.4218 120.757 99.6344C122.144 100.261 123.682 100.667 125.297 100.504C126.95 100.338 128.483 99.5943 129.856 98.2708L129.856 98.2694C131.136 97.0368 132.035 95.7386 132.526 94.3277C133.023 92.9027 133.058 91.495 132.808 90.1271C132.336 87.544 130.778 84.8944 129.307 82.3078L129.304 82.3043L128.705 81.2398C127.279 78.6628 125.681 75.4073 124.27 70.9077L124.27 70.9063L124.062 70.2257C119.831 55.9195 123.643 40.7018 128.046 31.8198L128.35 31.2192C141.32 5.8836 171.982 -4.4549 196.413 7.65756ZM218.385 135.312L218.383 135.311C218.385 135.311 218.386 135.312 218.387 135.312L218.385 135.312Z" stroke="#660099" stroke-opacity="0.5" stroke-width="4"/>
</svg>
