<svg width="32" height="32" viewBox="0 0 32 32" fill="none" xmlns="http://www.w3.org/2000/svg">
<g clip-path="url(#clip0_104_48314)">
<path d="M20.8007 7.60517C20.8007 8.55585 20.4772 10.0399 19.4723 11.0869C19.119 11.455 18.8124 11.6765 18.5675 11.8413C18.0951 12.1596 17.7531 12.3811 17.9436 12.9134C18.1305 13.4361 18.7144 13.274 19.2664 13.144C19.444 13.1001 22.9106 12.2356 22.9543 12.2334C23.8852 12.0504 24.7849 12.6641 25.0031 13.6132C25.0041 13.6169 25.2814 14.8233 25.284 14.834C25.5038 15.7831 24.9697 16.7563 24.0609 17.0339C24.0218 17.0521 20.2338 18.0012 20.2271 18.0028C19.5077 18.1938 19.0866 18.5656 19.0866 19.2884C19.0866 19.6115 19.2659 19.9625 19.4872 20.2535C19.4872 20.2535 23.6028 25.5682 23.6239 25.6094C24.1841 26.4054 24.0413 27.5156 23.3132 28.1308C23.3106 28.1335 22.3863 28.9146 22.3771 28.9215C21.6505 29.5373 20.5783 29.456 19.9457 28.7209C19.9129 28.692 17.3572 25.4189 17.0856 25.0717C16.8144 24.725 16.4735 24.1964 15.9995 24.1964C15.5256 24.1964 15.1861 24.7245 14.914 25.0717C14.6434 25.4189 12.0862 28.6925 12.0543 28.7209C11.4212 29.4554 10.349 29.5373 9.62193 28.9215C9.61423 28.9146 8.68891 28.1335 8.68635 28.1308C7.95924 27.5156 7.81598 26.4054 8.37568 25.6094C8.39674 25.5682 12.5124 20.2535 12.5124 20.2535C12.7332 19.9625 12.9129 19.6115 12.9129 19.2884C12.9129 18.5656 12.4924 18.1938 11.7724 18.0028C11.7658 18.0012 7.97824 17.0521 7.93921 17.0339C7.03033 16.7563 6.49681 15.7831 6.71556 14.834C6.71761 14.8233 6.99593 13.6169 6.99644 13.6132C7.21467 12.6641 8.1138 12.0499 9.04528 12.2334C9.08893 12.2356 12.555 13.1001 12.7327 13.144C13.2857 13.274 13.869 13.4361 14.0559 12.9134C14.2465 12.3816 13.9045 12.1596 13.4326 11.8413C13.1871 11.6765 12.8806 11.4555 12.5273 11.0869C11.5219 10.0394 11.1984 8.55585 11.1984 7.60517C11.1994 4.87776 13.3822 2.66663 16 2.66663C18.6178 2.66663 20.8007 4.87776 20.8007 7.60517Z" fill="#642C8F"/>
</g>
<defs>
<clipPath id="clip0_104_48314">
<rect width="32" height="32" fill="white"/>
</clipPath>
</defs>
</svg>
