<svg width="65" height="24" viewBox="0 0 65 24" fill="none" xmlns="http://www.w3.org/2000/svg">
<g clip-path="url(#clip0_236_2008)">
<path d="M7.79205 19.4766H8.85203C9.02869 19.4766 9.71572 19.385 10.0887 18.6979L14.4725 10.9248C14.924 10.1003 14.394 9.40021 13.9229 9.23009L12.7583 8.70664C12.1301 8.42529 11.3777 8.71973 11.0898 9.38058L8.33512 14.916H8.29587L5.54777 9.38058C5.26641 8.72627 4.50742 8.42529 3.88582 8.70664L2.72115 9.23009C2.25005 9.40021 1.72006 10.1003 2.17153 10.9248L6.56195 18.6979C6.9349 19.385 7.61539 19.4766 7.79205 19.4766Z" fill="#660099"/>
<path d="M27.068 19.4766H28.128C28.3046 19.4766 28.9917 19.385 29.3646 18.6979L33.755 10.9248C34.2065 10.1003 33.6765 9.40021 33.2054 9.23009L32.0408 8.70664C31.4126 8.42529 30.6602 8.71973 30.3788 9.38058L27.6242 14.916H27.5849L24.8303 9.38058C24.5489 8.72627 23.7899 8.42529 23.1683 8.70664L22.0036 9.23009C21.5325 9.40021 21.0026 10.1003 21.454 10.9248L25.8379 18.6979C26.2043 19.385 26.8913 19.4766 27.068 19.4766Z" fill="#660099"/>
<path d="M39.9383 8.63467C36.9154 8.63467 34.4617 11.0883 34.4617 14.1112C34.4617 17.1341 36.9154 19.5878 39.9383 19.5878C42.9612 19.5878 45.4148 17.1341 45.4148 14.1112C45.4148 11.0883 42.9677 8.63467 39.9383 8.63467ZM39.9383 16.2705C38.7474 16.2705 37.779 15.3021 37.779 14.1112C37.779 12.9204 38.7474 11.952 39.9383 11.952C41.1291 11.952 42.0975 12.9204 42.0975 14.1112C42.104 15.3021 41.1357 16.2705 39.9383 16.2705Z" fill="#660099"/>
<path d="M20.1061 5.52011C20.1061 6.70441 19.1443 7.66625 17.96 7.66625C16.7757 7.66625 15.8139 6.70441 15.8139 5.52011C15.8139 4.33581 16.7757 3.37398 17.96 3.37398C19.1443 3.37398 20.1061 4.33581 20.1061 5.52011Z" fill="#660099"/>
<path d="M16.0887 10.0742C16.0887 9.34136 16.6776 8.75248 17.4104 8.75248H18.5162C19.249 8.75248 19.8379 9.34136 19.8379 10.0742V18.1549C19.8379 18.8877 19.2425 19.4766 18.5162 19.4766H17.4104C16.6776 19.4766 16.0887 18.8877 16.0887 18.1549V10.0742Z" fill="#660099"/>
<path d="M59.6395 5.51364C59.6395 6.18758 59.3974 7.24756 58.658 7.98693C58.3963 8.24865 58.1673 8.40569 57.9841 8.52346C57.6373 8.75247 57.3821 8.9095 57.5196 9.289C57.657 9.66196 58.0888 9.54418 58.501 9.45258C58.6319 9.41987 61.2033 8.80482 61.236 8.80482C61.923 8.67395 62.5905 9.11234 62.754 9.78628C62.754 9.78628 62.9569 10.65 62.9634 10.6565C63.127 11.3304 62.7279 12.024 62.0539 12.2203C62.0277 12.2334 59.2208 12.9073 59.2142 12.9073C58.6842 13.0447 58.3702 13.3065 58.3702 13.8234C58.3702 14.0524 58.501 14.301 58.6646 14.5104C58.6646 14.5104 61.7137 18.2923 61.7268 18.3185C62.139 18.8877 62.0343 19.6729 61.4978 20.1113C61.4978 20.1113 60.8107 20.6674 60.8042 20.674C60.2676 21.1124 59.4694 21.0535 59.0048 20.53C58.9787 20.5104 57.0877 18.1811 56.8849 17.9324C56.682 17.6838 56.4334 17.3108 56.0801 17.3108C55.7267 17.3108 55.4781 17.6838 55.2753 17.9324C55.0724 18.1811 53.1815 20.5039 53.1553 20.53C52.6842 21.0535 51.8925 21.1124 51.356 20.674C51.3494 20.6674 50.6624 20.1113 50.6624 20.1113C50.1259 19.6729 50.0146 18.8812 50.4334 18.3185C50.4465 18.2923 53.4956 14.5104 53.4956 14.5104C53.6591 14.301 53.79 14.0524 53.79 13.8234C53.79 13.3065 53.4759 13.0447 52.9459 12.9073C52.9394 12.9073 50.1324 12.2334 50.1062 12.2203C49.4323 12.024 49.0397 11.3304 49.1967 10.6565C49.1967 10.65 49.4061 9.79282 49.4061 9.78628C49.5697 9.11234 50.2371 8.67395 50.9241 8.80482C50.9568 8.80482 53.5217 9.41987 53.6591 9.45258C54.0713 9.54418 54.5032 9.66196 54.6406 9.289C54.7845 8.9095 54.5294 8.75247 54.176 8.52346C53.9928 8.40569 53.7704 8.24865 53.5086 7.98693C52.7627 7.24102 52.5206 6.18758 52.5206 5.51364C52.5206 3.57689 54.1368 2 56.0801 2C58.0234 2 59.6395 3.57034 59.6395 5.51364Z" fill="#660099"/>
</g>
<defs>
<clipPath id="clip0_236_2008">
<rect width="65" height="24" fill="white"/>
</clipPath>
</defs>
</svg>
